<svg width="171" height="38" viewBox="0 0 171 38" fill="none" xmlns="http://www.w3.org/2000/svg">
    <g clip-path="url(#clip0_1524_2936)">
        <path d="M89.6545 7.08052C89.612 6.5759 89.5536 6.0766 89.4686 5.58261C89.3817 5.08877 89.2574 4.60224 89.0968 4.1272C89.0163 3.88661 88.9223 3.65075 88.8153 3.42074C88.7122 3.19241 88.5951 2.97067 88.4647 2.75678C88.3325 2.53617 88.1852 2.32497 88.0238 2.12469C87.86 1.9349 87.6825 1.75737 87.4927 1.59351C87.1195 1.25475 86.7056 0.963902 86.2604 0.727705C85.8124 0.498838 85.3402 0.320679 84.8527 0.196533C84.3633 0.0705598 83.8603 0.00456442 83.3549 0C82.8425 0.000385742 82.3322 0.0646213 81.8357 0.191222C81.3482 0.315367 80.8761 0.493527 80.4281 0.722393C79.9882 0.961368 79.5796 1.25397 79.2117 1.59351C79.0219 1.75737 78.8444 1.9349 78.6805 2.12469C78.5183 2.31681 78.3709 2.52102 78.2397 2.73553C78.1075 2.94934 77.9887 3.17108 77.8838 3.3995C77.7776 3.6279 77.6873 3.86693 77.6023 4.10596C77.4459 4.58185 77.3235 5.0682 77.2358 5.56137C77.147 6.05698 77.085 6.557 77.0498 7.05927C77.0075 7.55915 76.9915 8.06092 77.002 8.56249C77.0111 9.06451 77.0573 9.56517 77.1401 10.0604C77.1842 10.3092 77.2409 10.5557 77.3101 10.7987C77.3774 11.0431 77.4571 11.2821 77.5491 11.5158C77.927 12.4506 78.4062 13.3412 78.978 14.1717C79.2595 14.5913 79.5464 15.0003 79.8385 15.4146C80.1292 15.8272 80.4412 16.2244 80.7734 16.6044C80.9382 16.7932 81.1157 16.9707 81.3045 17.1356C81.4965 17.3013 81.7007 17.4522 81.9154 17.5871C82.1303 17.7224 82.358 17.8363 82.5953 17.927C82.7153 17.9681 82.8377 18.0018 82.9618 18.028C83.0882 18.0491 83.2161 18.0598 83.3442 18.0598C83.4706 18.06 83.5968 18.0493 83.7214 18.028C83.8458 18.0031 83.9683 17.9694 84.0879 17.927C84.3261 17.8385 84.554 17.7245 84.7678 17.5871C85.1924 17.3142 85.5798 16.9875 85.9204 16.615C86.2583 16.231 86.5723 15.8265 86.8606 15.404C87.158 14.9897 87.4449 14.5807 87.7211 14.161C88.2929 13.3306 88.772 12.44 89.1499 11.5052C89.2402 11.2715 89.3252 11.0324 89.3943 10.7881C89.4633 10.5438 89.5164 10.2941 89.5589 10.0498C89.6461 9.55503 89.6941 9.05416 89.7023 8.55186C89.713 8.08443 89.6917 7.58513 89.6545 7.08052ZM77.9103 9.09897C77.9103 9.09897 80.6937 9.73637 82.4784 13.4705C82.4784 13.4705 77.6713 13.3908 77.9103 9.09897ZM84.2313 13.4705C86.0107 9.75231 88.7994 9.09897 88.7994 9.09897C89.0331 13.3908 84.2313 13.4705 84.2313 13.4705Z" fill="white"/>
        <path d="M164.693 33.586L166.016 32.4121H161.968V33.586H164.693Z" fill="white"/>
        <path d="M166.897 36.8049L160.916 36.7996V29.411H166.674V28.1946H159.557V38H167.035V36.8049H166.897Z" fill="white"/>
        <path d="M22.8916 28.1946H21.5371V38H28.0493L29.3719 36.7996H22.8916V28.1946Z" fill="white"/>
        <path d="M41.8703 28.1946H40.5105V38H41.8703V28.1946Z" fill="white"/>
        <path d="M79.9978 36.0931L73.5068 28.2158L73.4856 28.1946H72.1205V38H73.4165V30.0696L79.9074 37.9788L79.9287 38H81.2832V28.1946H79.9978V36.0931Z" fill="white"/>
        <path d="M103.428 36.2365L100.501 28.2318L100.485 28.1946H99.2474L96.3047 36.2259L94.0047 28.2371L93.9941 28.1946H92.5706L95.4123 37.9575L95.4283 38H96.9368L99.8582 30.1174L102.769 38H104.278L107.141 28.2689L107.162 28.1946H105.744L103.428 36.2365Z" fill="white"/>
        <path d="M147.366 32.8849C147.592 32.6743 147.77 32.417 147.886 32.1308C148.003 31.8445 148.056 31.5363 148.041 31.2277V30.8877C148.045 30.4971 147.961 30.1105 147.796 29.7563C147.639 29.4225 147.404 29.1311 147.111 28.9064C146.796 28.6605 146.435 28.4799 146.049 28.3753C145.603 28.2501 145.142 28.1893 144.678 28.1947H139.632V38.0001H140.992V29.411H144.593C145.212 29.3674 145.823 29.5697 146.293 29.9741C146.423 30.1075 146.524 30.2655 146.592 30.4389C146.659 30.6122 146.692 30.7974 146.686 30.9833V31.302C146.691 31.5279 146.632 31.7505 146.516 31.9447C146.405 32.1322 146.252 32.292 146.07 32.4122C145.876 32.5445 145.66 32.6416 145.433 32.699C145.191 32.762 144.944 32.7994 144.694 32.8105H141.507V33.9951H144.418L146.782 37.9948V38.0266H148.285L145.725 33.7082C146.336 33.5865 146.903 33.302 147.366 32.8849Z" fill="white"/>
        <path d="M4.5768 28.0776L0.247753 37.9149L0.210571 37.9999H1.7191L2.9886 35.1157L3.22231 34.5261H7.40263L8.91647 37.9946H10.4144L5.99503 28.0776H4.5768ZM6.90333 33.3575H3.75348L5.31513 29.6393L6.90333 33.3575Z" fill="white"/>
        <path d="M122.64 28.0776L118.306 37.9149L118.269 37.9999H119.783L121.052 35.1157L121.296 34.5314H125.477L126.985 37.9627V37.9999H128.483L124.053 28.0776H122.64ZM124.961 33.3575H121.774L123.331 29.6393L124.961 33.3575Z" fill="white"/>
        <path d="M58.3579 33.586L59.6805 32.4121H55.6383V33.586H58.3579Z" fill="white"/>
        <path d="M54.5813 36.7996V29.411H60.3392V28.1946H53.2268V38H60.7004V36.8049H60.5623L54.5813 36.7996Z" fill="white"/>
        <path d="M167.923 28.3805V28.1946H169.096V28.3805H168.613V29.411H168.417V28.3805H167.923Z" fill="white"/>
        <path d="M169.633 28.1946L170.164 28.917L170.695 28.1946H170.924V29.411H170.706V28.492L170.238 29.1507H170.106L169.644 28.492V29.411H169.426V28.1946H169.633Z" fill="white"/>
    </g>
    <defs>
        <clipPath id="clip0_1524_2936">
            <rect width="170.692" height="38" fill="white" transform="translate(0.210571)"/>
        </clipPath>
    </defs>
</svg>