<svg width="90" height="42" viewBox="0 0 90 42" fill="none" xmlns="http://www.w3.org/2000/svg">
    <g clip-path="url(#clip0_1524_2951)">
        <mask id="mask0_1524_2951" style="mask-type:luminance" maskUnits="userSpaceOnUse" x="0" y="0" width="90" height="42">
            <path d="M89.163 0H0.902466V42H89.163V0Z" fill="white"/>
        </mask>
        <g mask="url(#mask0_1524_2951)">
            <path d="M21.6315 19.8682H16.7349L15.2366 16.217H7.07976L5.7154 19.8682H0.902466L8.25581 1.42578H13.5249L21.6315 19.8682ZM10.9594 5.83013L8.28507 12.9973H13.9015L10.9594 5.83013Z" fill="white"/>
            <path d="M39.4143 1.42578H43.3734V19.8682H38.8242V8.3475L33.9024 14.1311H33.2077L28.2859 8.3475V19.8682H23.7367V1.42578H27.6958L33.555 8.26713L39.4143 1.42578Z" fill="white"/>
            <path d="M54.8952 1.42578C61.5537 1.42578 64.9772 5.61436 64.9772 10.6745C64.9772 15.9758 61.6626 19.8682 54.3845 19.8682H46.8429V1.42578H54.8952ZM51.388 16.4877H54.3553C58.9296 16.4877 60.294 13.3526 60.294 10.6449C60.294 7.48017 58.6074 4.80626 54.3009 4.80626H51.388V16.4877Z" fill="white"/>
        <path d="M83.4296 5.79631H74.0258L68.2877 0H89.1629V21.1036L83.4296 15.3074V5.79631Z" fill="white"/>
        <path d="M74.0174 15.312V6.96021L68.1119 12.9257V21.2817H76.3779L82.2785 15.312H74.0174Z" fill="white"/>
        <path d="M32.0736 31.668H40.9503L32.0736 39.3978V41.9998H44.8383V39.4189H35.9616L44.8383 31.6891V29.0872H32.0736V31.668Z" fill="white"/>
        <path d="M22.6695 34.2065L19.0159 29.0872H15.8602L21.3805 36.8339V41.9998H23.9334V36.8339L29.4829 29.0872H26.3273L22.6695 34.2065Z" fill="white"/>
        <path d="M61.173 29.0872H48.4041V31.668H61.173V29.0872Z" fill="white"/>
        <path d="M48.4041 34.2529V41.9997H61.173V39.4189H50.9612V36.8338H61.173V34.2529H48.4041Z" fill="white"/>
        <path d="M3.45541 36.8353H8.1679L11.1184 42.0012H14.069L11.1184 36.8353C12.5288 36.8353 13.6714 35.6802 13.6714 34.2544V31.6736C13.6714 30.2478 12.5288 29.0928 11.1184 29.0928H0.902466V31.6736H10.9385C11.0389 31.6736 11.1184 31.754 11.1184 31.8555V34.0725C11.1184 34.1741 11.0389 34.2544 10.9385 34.2544H0.902466V36.8353V42.0012H3.45541V36.8353Z" fill="white"/>
        <path d="M75.2688 29.0913V38.065L67.6222 29.0913H65.0483V41.9955H67.6013V33.0218L75.2474 41.9955H77.8173V29.0913H75.2688Z" fill="white"/>
        </g>
    </g>
    <defs>
        <clipPath id="clip0_1524_2951">
            <rect width="88.2712" height="42" fill="white" transform="translate(0.902466)"/>
        </clipPath>
    </defs>
</svg>