<svg xmlns="http://www.w3.org/2000/svg" width="560" height="280" viewBox="0 0 560 280">
    <style>
        .code {
            fill: #db0d15;
            opacity: 0.15;
            font-family: monospace;
            font-size: 14px;
            letter-spacing: 3px;
        }
    </style>
    <text x="10" y="0" class="code">
        <tspan x="10" dy="20">B</tspan>
        <tspan x="10" dy="20">A</tspan>
        <tspan x="10" dy="20">D</tspan>
        <tspan x="10" dy="20">L</tspan>
        <tspan x="10" dy="20">A</tspan>
        <tspan x="10" dy="20">N</tspan>
        <tspan x="10" dy="20">D</tspan>
        <tspan x="10" dy="20">S</tspan>
    </text>
    <text x="30" y="60" class="code">
        <tspan x="30" dy="20">D</tspan>
        <tspan x="30" dy="20">E</tspan>
        <tspan x="30" dy="20">L</tspan>
        <tspan x="30" dy="20">A</tspan>
        <tspan x="30" dy="20">M</tspan>
        <tspan x="30" dy="20">A</tspan>
        <tspan x="30" dy="20">I</tspan>
        <tspan x="30" dy="20">N</tspan>
    </text>
    <text x="50" y="10" class="code">
        <tspan x="50" dy="20">N</tspan>
        <tspan x="50" dy="20">E</tspan>
        <tspan x="50" dy="20">T</tspan>
        <tspan x="50" dy="20">R</tspan>
        <tspan x="50" dy="20">U</tspan>
        <tspan x="50" dy="20">N</tspan>
        <tspan x="50" dy="20">N</tspan>
        <tspan x="50" dy="20">E</tspan>
        <tspan x="50" dy="20">R</tspan>
    </text>
    <text x="70" y="100" class="code">
        <tspan x="70" dy="20">M</tspan>
        <tspan x="70" dy="20">I</tspan>
        <tspan x="70" dy="20">L</tspan>
        <tspan x="70" dy="20">I</tspan>
        <tspan x="70" dy="20">T</tspan>
        <tspan x="70" dy="20">E</tspan>
        <tspan x="70" dy="20">C</tspan>
        <tspan x="70" dy="20">H</tspan>
    </text>
    <text x="90" y="20" class="code">
        <tspan x="90" dy="20">B</tspan>
        <tspan x="90" dy="20">L</tspan>
        <tspan x="90" dy="20">A</tspan>
        <tspan x="90" dy="20">C</tspan>
        <tspan x="90" dy="20">K</tspan>
        <tspan x="90" dy="20">W</tspan>
        <tspan x="90" dy="20">A</tspan>
        <tspan x="90" dy="20">L</tspan>
        <tspan x="90" dy="20">L</tspan>
    </text>
    <text x="110" y="50" class="code">
        <tspan x="110" dy="20">A</tspan>
        <tspan x="110" dy="20">R</tspan>
        <tspan x="110" dy="20">A</tspan>
        <tspan x="110" dy="20">S</tspan>
        <tspan x="110" dy="20">A</tspan>
        <tspan x="110" dy="20">K</tspan>
        <tspan x="110" dy="20">A</tspan>
    </text>
    <text x="130" y="100" class="code">
        <tspan x="130" dy="20">R</tspan>
        <tspan x="130" dy="20">E</tspan>
        <tspan x="130" dy="20">L</tspan>
        <tspan x="130" dy="20">I</tspan>
        <tspan x="130" dy="20">C</tspan>
    </text>
    <text x="150" y="30" class="code">
        <tspan x="150" dy="20">E</tspan>
        <tspan x="150" dy="20">N</tspan>
        <tspan x="150" dy="20">G</tspan>
        <tspan x="150" dy="20">R</tspan>
        <tspan x="150" dy="20">A</tspan>
        <tspan x="150" dy="20">M</tspan>
    </text>
    <text x="170" y="0" class="code">
        <tspan x="170" dy="20">S</tspan>
        <tspan x="170" dy="20">O</tspan>
        <tspan x="170" dy="20">U</tspan>
        <tspan x="170" dy="20">L</tspan>
        <tspan x="170" dy="20">K</tspan>
        <tspan x="170" dy="20">I</tspan>
        <tspan x="170" dy="20">L</tspan>
        <tspan x="170" dy="20">L</tspan>
        <tspan x="170" dy="20">E</tspan>
        <tspan x="170" dy="20">R</tspan>
    </text>
    <text x="190" y="80" class="code">
        <tspan x="190" dy="20">D</tspan>
        <tspan x="190" dy="20">O</tspan>
        <tspan x="190" dy="20">G</tspan>
        <tspan x="190" dy="20">T</tspan>
        <tspan x="190" dy="20">O</tspan>
        <tspan x="190" dy="20">W</tspan>
        <tspan x="190" dy="20">N</tspan>
    </text>
    <text x="210" y="70" class="code">
        <tspan x="210" dy="20">N</tspan>
        <tspan x="210" dy="20">I</tspan>
        <tspan x="210" dy="20">G</tspan>
        <tspan x="210" dy="20">H</tspan>
        <tspan x="210" dy="20">T</tspan>
        <tspan x="210" dy="20">C</tspan>
        <tspan x="210" dy="20">I</tspan>
        <tspan x="210" dy="20">T</tspan>
        <tspan x="210" dy="20">Y</tspan>
    </text>
    <text x="230" y="40" class="code">
        <tspan x="230" dy="20">M</tspan>
        <tspan x="230" dy="20">A</tspan>
        <tspan x="230" dy="20">X</tspan>
        <tspan x="230" dy="20">T</tspan>
        <tspan x="230" dy="20">A</tspan>
        <tspan x="230" dy="20">C</tspan>
    </text>
    <text x="250" y="20" class="code">
        <tspan x="250" dy="20">C</tspan>
        <tspan x="250" dy="20">Y</tspan>
        <tspan x="250" dy="20">B</tspan>
        <tspan x="250" dy="20">E</tspan>
        <tspan x="250" dy="20">R</tspan>
        <tspan x="250" dy="20">W</tspan>
        <tspan x="250" dy="20">A</tspan>
        <tspan x="250" dy="20">R</tspan>
        <tspan x="250" dy="20">E</tspan>
    </text>
    <text x="270" y="50" class="code">
        <tspan x="270" dy="20">C</tspan>
        <tspan x="270" dy="20">H</tspan>
        <tspan x="270" dy="20">R</tspan>
        <tspan x="270" dy="20">O</tspan>
        <tspan x="270" dy="20">M</tspan>
        <tspan x="270" dy="20">E</tspan>
    </text>
    <text x="290" y="10" class="code">
        <tspan x="290" dy="20">I</tspan>
        <tspan x="290" dy="20">C</tspan>
        <tspan x="290" dy="20">E</tspan>
        <tspan x="290" dy="20">B</tspan>
        <tspan x="290" dy="20">R</tspan>
        <tspan x="290" dy="20">E</tspan>
        <tspan x="290" dy="20">A</tspan>
        <tspan x="290" dy="20">K</tspan>
        <tspan x="290" dy="20">E</tspan>
        <tspan x="290" dy="20">R</tspan>
    </text>
    <text x="310" y="60" class="code">
        <tspan x="310" dy="20">D</tspan>
        <tspan x="310" dy="20">A</tspan>
        <tspan x="310" dy="20">T</tspan>
        <tspan x="310" dy="20">A</tspan>
        <tspan x="310" dy="20">S</tspan>
        <tspan x="310" dy="20">H</tspan>
        <tspan x="310" dy="20">A</tspan>
        <tspan x="310" dy="20">R</tspan>
        <tspan x="310" dy="20">D</tspan>
    </text>
    <text x="330" y="30" class="code">
        <tspan x="330" dy="20">K</tspan>
        <tspan x="330" dy="20">I</tspan>
        <tspan x="330" dy="20">R</tspan>
        <tspan x="330" dy="20">O</tspan>
        <tspan x="330" dy="20">S</tspan>
        <tspan x="330" dy="20">H</tspan>
        <tspan x="330" dy="20">I</tspan>
    </text>
    <text x="350" y="5" class="code">
        <tspan x="350" dy="20">A</tspan>
        <tspan x="350" dy="20">C</tspan>
        <tspan x="350" dy="20">C</tspan>
        <tspan x="350" dy="20">E</tspan>
        <tspan x="350" dy="20">S</tspan>
        <tspan x="350" dy="20">S</tspan>
        <tspan x="350" dy="20">P</tspan>
        <tspan x="350" dy="20">I</tspan>
        <tspan x="350" dy="20">O</tspan>
        <tspan x="350" dy="20">N</tspan>
        <tspan x="350" dy="20">T</tspan>
    </text>
    <text x="370" y="60" class="code">
        <tspan x="370" dy="20">B</tspan>
        <tspan x="370" dy="20">R</tspan>
        <tspan x="370" dy="20">A</tspan>
        <tspan x="370" dy="20">I</tspan>
        <tspan x="370" dy="20">N</tspan>
        <tspan x="370" dy="20">D</tspan>
        <tspan x="370" dy="20">A</tspan>
        <tspan x="370" dy="20">N</tspan>
        <tspan x="370" dy="20">C</tspan>
        <tspan x="370" dy="20">E</tspan>
    </text>
    <text x="390" y="40" class="code">
        <tspan x="390" dy="20">Q</tspan>
        <tspan x="390" dy="20">U</tspan>
        <tspan x="390" dy="20">I</tspan>
        <tspan x="390" dy="20">C</tspan>
        <tspan x="390" dy="20">K</tspan>
        <tspan x="390" dy="20">H</tspan>
        <tspan x="390" dy="20">A</tspan>
        <tspan x="390" dy="20">C</tspan>
        <tspan x="390" dy="20">K</tspan>
    </text>
    <text x="410" y="80" class="code">
        <tspan x="410" dy="20">N</tspan>
        <tspan x="410" dy="20">E</tspan>
        <tspan x="410" dy="20">U</tspan>
        <tspan x="410" dy="20">R</tspan>
        <tspan x="410" dy="20">A</tspan>
        <tspan x="410" dy="20">L</tspan>
        <tspan x="410" dy="20">L</tspan>
        <tspan x="410" dy="20">I</tspan>
        <tspan x="410" dy="20">N</tspan>
        <tspan x="410" dy="20">K</tspan>
    </text>
    <text x="430" y="10" class="code">
        <tspan x="430" dy="20">S</tspan>
        <tspan x="430" dy="20">A</tspan>
        <tspan x="430" dy="20">N</tspan>
        <tspan x="430" dy="20">D</tspan>
        <tspan x="430" dy="20">E</tspan>
        <tspan x="430" dy="20">V</tspan>
        <tspan x="430" dy="20">I</tspan>
        <tspan x="430" dy="20">S</tspan>
        <tspan x="430" dy="20">T</tspan>
        <tspan x="430" dy="20">A</tspan>
        <tspan x="430" dy="20">N</tspan>
    </text>
    <text x="450" y="20" class="code">
        <tspan x="450" dy="20">C</tspan>
        <tspan x="450" dy="20">Y</tspan>
        <tspan x="450" dy="20">B</tspan>
        <tspan x="450" dy="20">E</tspan>
        <tspan x="450" dy="20">R</tspan>
        <tspan x="450" dy="20">D</tspan>
        <tspan x="450" dy="20">E</tspan>
        <tspan x="450" dy="20">C</tspan>
        <tspan x="450" dy="20">K</tspan>
    </text>
    <text x="470" y="100" class="code">
        <tspan x="470" dy="20">M</tspan>
        <tspan x="470" dy="20">O</tspan>
        <tspan x="470" dy="20">N</tspan>
        <tspan x="470" dy="20">O</tspan>
        <tspan x="470" dy="20">W</tspan>
        <tspan x="470" dy="20">I</tspan>
        <tspan x="470" dy="20">R</tspan>
        <tspan x="470" dy="20">E</tspan>
    </text>
    <text x="490" y="40" class="code">
        <tspan x="490" dy="20">M</tspan>
        <tspan x="490" dy="20">O</tspan>
        <tspan x="490" dy="20">N</tspan>
        <tspan x="490" dy="20">O</tspan>
        <tspan x="490" dy="20">W</tspan>
        <tspan x="490" dy="20">I</tspan>
        <tspan x="490" dy="20">R</tspan>
        <tspan x="490" dy="20">E</tspan>
    </text>
    <text x="510" y="0" class="code">
        <tspan x="510" dy="20">M</tspan>
        <tspan x="510" dy="20">A</tspan>
        <tspan x="510" dy="20">L</tspan>
        <tspan x="510" dy="20">O</tspan>
        <tspan x="510" dy="20">R</tspan>
        <tspan x="510" dy="20">I</tspan>
        <tspan x="510" dy="20">A</tspan>
        <tspan x="510" dy="20">N</tspan>
    </text>
    <text x="530" y="60" class="code">
        <tspan x="530" dy="20">S</tspan>
        <tspan x="530" dy="20">A</tspan>
        <tspan x="530" dy="20">T</tspan>
        <tspan x="530" dy="20">O</tspan>
        <tspan x="530" dy="20">R</tspan>
        <tspan x="530" dy="20">I</tspan>
    </text>
    <text x="550" y="70" class="code">
        <tspan x="550" dy="20">T</tspan>
        <tspan x="550" dy="20">R</tspan>
        <tspan x="550" dy="20">A</tspan>
        <tspan x="550" dy="20">U</tspan>
        <tspan x="550" dy="20">M</tspan>
        <tspan x="550" dy="20">A</tspan>
        <tspan x="550" dy="20">T</tspan>
        <tspan x="550" dy="20">E</tspan>
        <tspan x="550" dy="20">A</tspan>
        <tspan x="550" dy="20">M</tspan>
    </text>
</svg>