<svg width="129" height="42" viewBox="0 0 129 42" fill="none" xmlns="http://www.w3.org/2000/svg">
    <g clip-path="url(#clip0_1524_2913)">
        <path d="M27.8195 29.1624H27.079V32.771H27.8471C28.9524 32.771 29.6763 32.2681 29.6763 30.9639C29.6763 29.6597 28.9303 29.1624 27.8195 29.1624Z" fill="white"/>
        <path d="M34.0422 18.6016C33.6332 18.1871 31.6438 17.2366 31.163 16.8442C28.234 19.3863 25.2056 21.5527 21.0001 21.5527C20.6768 21.5522 20.3538 21.5319 20.033 21.4919V22.8016C20.3701 22.8348 20.7127 22.8569 21.0664 22.8569C24.769 22.8348 31.2569 20.9448 34.0422 18.6016Z" fill="white"/>
        <path d="M20.5026 11.3731C24.6529 11.246 27.3718 14.9542 27.3718 14.9542C27.3718 14.9542 24.4318 19.0602 21.2929 19.0602C20.8759 19.0605 20.4616 18.9933 20.066 18.8613V20.0605C20.4489 20.1303 20.8374 20.1655 21.2266 20.1655C25.725 20.1655 30.0355 14.8934 30.0355 14.8934C30.0355 14.8934 26.2831 9.9197 20.5137 10.1352L20.066 10.1629V11.3952L20.5026 11.3731Z" fill="white"/>
        <path d="M15.1145 15.3245C16.4435 13.9895 18.1844 13.1424 20.055 12.9205V11.3953C18.7099 11.5024 17.4026 11.8925 16.2188 12.5401C15.035 13.1878 14.0014 14.0782 13.1858 15.1532C13.1858 15.1532 14.9211 20.8232 20.055 21.4697V20.0605C16.1866 19.3697 15.1145 15.3245 15.1145 15.3245Z" fill="white"/>
        <path d="M20.0495 14.2413C18.4303 14.0424 17.1703 15.5621 17.1703 15.5621C17.1703 15.5621 17.8777 18.1263 20.055 18.8779V14.2413H20.0495Z" fill="white"/>
        <path d="M22.9674 16.778L25.1227 14.9487C24.6067 14.3213 23.9625 13.8113 23.2334 13.4529C22.5043 13.0946 21.7071 12.8961 20.8951 12.8708C20.6144 12.8733 20.334 12.8899 20.0551 12.9206V14.2414C21.6743 14.4348 21.9948 15.1532 22.9674 16.778Z" fill="white"/>
        <path d="M0 0V42H117.014L128.211 0H0ZM20.055 10.1629V7.88605H35.9542V24.7579H20.055V22.7795C13.0808 22.1053 10.594 14.9211 10.594 14.9211C10.594 14.9211 14.9874 10.5718 20.055 10.1629ZM14.7387 34.125H12.9924V31.3618C12.9924 30.4721 12.8818 29.9858 12.6 29.7039C12.4726 29.5688 12.3182 29.4621 12.1468 29.3906C11.9754 29.3192 11.7909 29.2848 11.6053 29.2895H10.1905V34.1139H8.39448V27.7697H11.6053C13.1582 27.7697 14.7497 28.1068 14.7497 30.6158L14.7387 34.125ZM19.6129 34.125H17.0432L15.0095 27.7808H16.9326L18.3584 32.8097L19.845 27.7808H21.6632L19.6129 34.125ZM24.1942 34.125H22.4147V27.7808H24.1942V34.125ZM30.7595 33.2905C30.2069 33.8432 29.715 34.125 28.1732 34.125H25.2829V27.7808H27.7863C29.2066 27.7808 30.1571 27.9521 30.8147 28.8363C31.2303 29.4962 31.4329 30.2679 31.395 31.0468C31.4403 31.8448 31.2165 32.6349 30.7595 33.2905ZM34.0034 34.125H32.224V27.7808H34.009L34.0034 34.125ZM40.1984 34.125L39.8226 33.0197H36.8771L36.4847 34.125H34.7274L37.2197 27.7863H39.5961L42.105 34.125H40.1984ZM43.3429 34.65C43.1663 34.6544 42.9924 34.6061 42.8433 34.5113C42.6942 34.4165 42.5768 34.2794 42.5059 34.1176C42.435 33.9558 42.4139 33.7765 42.4452 33.6027C42.4766 33.4288 42.5589 33.2682 42.6819 33.1413C42.8048 33.0145 42.9628 32.9271 43.1356 32.8903C43.3084 32.8535 43.4882 32.869 43.6522 32.9348C43.8161 33.0006 43.9568 33.1137 44.0562 33.2597C44.1557 33.4058 44.2094 33.5781 44.2105 33.7547C44.212 33.9874 44.1218 34.2112 43.9594 34.3777C43.797 34.5443 43.5755 34.6401 43.3429 34.6445V34.65ZM115.5 39.8945H48.814L58.8884 2.1H125.558L115.5 39.8945Z" fill="white"/>
        <path d="M43.3429 33.0419C43.1999 33.0386 43.0592 33.0781 42.9388 33.1553C42.8183 33.2324 42.7237 33.3438 42.6669 33.475C42.6102 33.6063 42.5939 33.7515 42.6201 33.8921C42.6464 34.0327 42.714 34.1623 42.8144 34.2642C42.9147 34.3661 43.0432 34.4358 43.1834 34.4642C43.3235 34.4927 43.469 34.4787 43.6011 34.424C43.7333 34.3692 43.8461 34.2763 43.9251 34.1571C44.0041 34.0379 44.0458 33.8979 44.0447 33.7548C44.0477 33.6613 44.0317 33.5682 43.9977 33.4811C43.9636 33.394 43.9122 33.3147 43.8466 33.248C43.7809 33.1813 43.7025 33.1287 43.6159 33.0933C43.5293 33.0579 43.4364 33.0404 43.3429 33.0419ZM43.5032 34.2246L43.3318 33.8598H43.2324V34.2246H43.0224V33.2851H43.4037C43.4438 33.2829 43.4839 33.2887 43.5217 33.3024C43.5595 33.316 43.5941 33.3372 43.6235 33.3645C43.6529 33.3919 43.6765 33.4249 43.6929 33.4615C43.7092 33.4982 43.718 33.5378 43.7187 33.578C43.7187 33.6334 43.7018 33.6874 43.6702 33.7329C43.6386 33.7783 43.5938 33.813 43.5418 33.8322L43.7408 34.2246H43.5032Z" fill="white"/>
        <path d="M37.2584 31.909H39.4524L38.3747 28.9414L37.2584 31.909Z" fill="white"/>
        <path d="M43.3761 33.4563H43.2324V33.7105H43.3761C43.3946 33.7144 43.4138 33.7142 43.4322 33.7097C43.4506 33.7053 43.4678 33.6968 43.4825 33.6849C43.4972 33.673 43.509 33.658 43.5172 33.6409C43.5253 33.6238 43.5296 33.6051 43.5296 33.5862C43.5296 33.5672 43.5253 33.5485 43.5172 33.5315C43.509 33.5144 43.4972 33.4993 43.4825 33.4874C43.4678 33.4755 43.4506 33.467 43.4322 33.4626C43.4138 33.4582 43.3946 33.4579 43.3761 33.4618V33.4563Z" fill="white"/>
        <path d="M79.3358 34.1195H75.8819L71.8422 27.3774H68.8248V34.1195H65.6361V17.5737H75.5116C76.2445 17.5737 76.9473 17.8648 77.4655 18.383C77.9837 18.9012 78.2748 19.6041 78.2748 20.3369V24.6087C78.2748 25.3416 77.9837 26.0444 77.4655 26.5626C76.9473 27.0808 76.2445 27.3719 75.5116 27.3719H75.3182L79.3358 34.1195ZM68.8358 24.4429H74.1964C74.3049 24.4437 74.4125 24.4227 74.5128 24.3812C74.6131 24.3396 74.7041 24.2784 74.7803 24.2012C74.8566 24.1239 74.9166 24.0321 74.9568 23.9313C74.9969 23.8304 75.0165 23.7225 75.0143 23.614V21.3593C75.0173 21.1383 74.9331 20.9252 74.78 20.7659C74.6269 20.6066 74.4172 20.514 74.1964 20.5082H68.8358V24.4429Z" fill="white"/>
        <path d="M92.6984 17.5737V20.4474H87.99V34.1195H84.7792V20.4474H80.0708V17.5737H92.6984Z" fill="white"/>
        <path d="M104.967 17.5737H108.509L103.342 25.4211L108.819 34.1195H104.95L101.38 28.4772L97.7605 34.1195H94.2402L99.6892 25.7858L94.5497 17.5737H98.4181L101.684 22.785L104.967 17.5737Z" fill="white"/>
        <path d="M110.692 17.5737V17.7506H110.195V19.11H109.974V17.7506H109.504V17.5737H110.692ZM112.151 17.5737H112.356V19.11H112.184V17.9108L111.737 18.679H111.571L111.151 17.9495V19.11H110.946V17.5737H111.14L111.654 18.469L112.151 17.5737Z" fill="white"/>
        <path d="M65.6195 9.04651C65.6188 8.89437 65.6481 8.74359 65.7058 8.60282C65.7636 8.46205 65.8485 8.33407 65.9559 8.22623C66.0632 8.11839 66.1908 8.03282 66.3312 7.97443C66.4717 7.91604 66.6224 7.88598 66.7745 7.88599H71.1403V9.14046H67.3272C67.2352 9.14042 67.1469 9.17616 67.0809 9.24011C67.0149 9.30407 66.9763 9.39122 66.9735 9.48309V12.7381C66.9747 12.8288 67.0103 12.9157 67.0729 12.9812L67.5593 13.4676C67.5921 13.5017 67.6316 13.5286 67.6754 13.5467C67.7191 13.5648 67.7661 13.5736 67.8135 13.5726H69.6648C69.7102 13.5726 69.7553 13.5635 69.7972 13.546C69.8391 13.5284 69.8771 13.5027 69.909 13.4703C69.9409 13.4379 69.966 13.3994 69.9829 13.3572C69.9998 13.315 70.0081 13.2699 70.0074 13.2244V11.9755H68.3827V10.7265H71.3724V13.672C71.3724 13.9769 71.2513 14.2693 71.0357 14.4848C70.8202 14.7004 70.5278 14.8215 70.2229 14.8215H67.1448C67.0521 14.8222 66.9628 14.7865 66.8961 14.722L65.719 13.5394C65.6554 13.4745 65.6197 13.3872 65.6195 13.2962V9.04651Z" fill="white"/>
        <path d="M73.9034 9.11835V10.7431H76.7053V11.9755H73.9034V13.5891H77.3684V14.8215H72.5605V7.88599H77.3684V9.11835H73.9034Z" fill="white"/>
        <path d="M79.7448 14.8215H78.3964V7.88599H83.2319V9.11835H79.7448V10.7431H82.5411V11.9755H79.7448V14.8215Z" fill="white"/>
        <path d="M84.1879 9.04651C84.1864 8.74208 84.3052 8.44938 84.5183 8.23205C84.7315 8.01472 85.0219 7.89035 85.3263 7.88599H88.7858C89.0911 7.88891 89.3829 8.01264 89.5973 8.23012C89.8117 8.4476 89.9312 8.74114 89.9297 9.04651V13.672C89.9305 13.8227 89.9014 13.9721 89.8442 14.1115C89.7871 14.2509 89.7029 14.3777 89.5966 14.4845C89.4903 14.5913 89.364 14.6761 89.2248 14.7339C89.0857 14.7917 88.9365 14.8215 88.7858 14.8215H85.3263C85.1761 14.8208 85.0275 14.7905 84.8889 14.7323C84.7504 14.6742 84.6247 14.5893 84.519 14.4826C84.4133 14.3758 84.3297 14.2493 84.2728 14.1102C84.216 13.9712 84.1872 13.8223 84.1879 13.672V9.04651ZM88.2497 13.5891C88.2952 13.5899 88.3403 13.5816 88.3825 13.5647C88.4247 13.5478 88.4632 13.5227 88.4956 13.4908C88.528 13.4589 88.5537 13.4209 88.5713 13.3789C88.5888 13.337 88.5979 13.292 88.5979 13.2465V9.47204C88.5979 9.37919 88.5614 9.29005 88.4963 9.22388C88.4311 9.15771 88.3426 9.11981 88.2497 9.11835H85.8624C85.8166 9.11907 85.7715 9.12879 85.7295 9.14696C85.6876 9.16512 85.6496 9.19138 85.6178 9.22422C85.586 9.25707 85.5609 9.29586 85.5441 9.33838C85.5273 9.3809 85.519 9.42632 85.5197 9.47204V13.2631C85.5197 13.354 85.5558 13.4411 85.6201 13.5054C85.6843 13.5696 85.7715 13.6057 85.8624 13.6057L88.2497 13.5891Z" fill="white"/>
        <path d="M96.8156 14.8215H95.3732L93.6711 11.9976H92.4056V14.8215H91.0737V7.88599H95.2074C95.3596 7.88598 95.5102 7.91604 95.6507 7.97443C95.7912 8.03282 95.9188 8.11839 96.0261 8.22623C96.1334 8.33407 96.2184 8.46205 96.2761 8.60282C96.3338 8.74359 96.3631 8.89437 96.3624 9.04651V10.837C96.3631 10.9892 96.3338 11.14 96.2761 11.2807C96.2184 11.4215 96.1334 11.5495 96.0261 11.6573C95.9188 11.7652 95.7912 11.8507 95.6507 11.9091C95.5102 11.9675 95.3596 11.9976 95.2074 11.9976H95.13L96.8156 14.8215ZM92.3945 10.7652H94.6437C94.7351 10.7637 94.8222 10.7264 94.8863 10.6613C94.9504 10.5962 94.9864 10.5084 94.9864 10.417V9.47204C94.9871 9.42632 94.9788 9.3809 94.962 9.33838C94.9452 9.29586 94.9201 9.25707 94.8883 9.22422C94.8565 9.19138 94.8185 9.16512 94.7765 9.14696C94.7346 9.12879 94.6894 9.11907 94.6437 9.11835H92.3945V10.7652Z" fill="white"/>
        <path d="M102.132 9.11835H99.2084C99.118 9.11978 99.0317 9.15633 98.9677 9.22028C98.9038 9.28423 98.8672 9.37056 98.8658 9.46099V13.2631C98.8658 13.354 98.9019 13.4411 98.9661 13.5054C99.0304 13.5696 99.1176 13.6057 99.2084 13.6057H102.132V14.8381H98.6834C98.5325 14.8381 98.383 14.8084 98.2435 14.7506C98.1041 14.6928 97.9774 14.6082 97.8706 14.5014C97.7639 14.3947 97.6792 14.268 97.6214 14.1285C97.5637 13.989 97.5339 13.8396 97.5339 13.6886V9.04651C97.5332 8.89484 97.5624 8.7445 97.6197 8.60409C97.6771 8.46368 97.7616 8.33595 97.8683 8.22818C97.9751 8.12042 98.102 8.03473 98.2418 7.97602C98.3817 7.9173 98.5317 7.88671 98.6834 7.88599H102.132V9.11835Z" fill="white"/>
        <path d="M104.58 9.11835V10.7431H107.382V11.9755H104.58V13.5891H108.073V14.8215H103.237V7.88599H108.073V9.11835H104.58Z" fill="white"/>
    </g>
    <defs>
        <clipPath id="clip0_1524_2913">
            <rect width="128.211" height="42" fill="white"/>
        </clipPath>
    </defs>
</svg>